<?xml version="1.0" encoding="UTF-8" standalone="no"?>
<svg
   version="1.1"
   id="Layer_1"
   x="0px"
   y="0px"
   width="100%"
   viewBox="0 0 500 500"
   enable-background="new 0 0 500 500"
   xml:space="preserve"
   sodipodi:docname="viaggiodasolo.svg"
   inkscape:version="1.3.2 (091e20e, 2023-11-25, custom)"
   xmlns:inkscape="http://www.inkscape.org/namespaces/inkscape"
   xmlns:sodipodi="http://sodipodi.sourceforge.net/DTD/sodipodi-0.dtd"
   xmlns="http://www.w3.org/2000/svg"
   xmlns:svg="http://www.w3.org/2000/svg"><defs
   id="defs40" /><sodipodi:namedview
   id="namedview40"
   pagecolor="#505050"
   bordercolor="#eeeeee"
   borderopacity="1"
   inkscape:showpageshadow="0"
   inkscape:pageopacity="0"
   inkscape:pagecheckerboard="0"
   inkscape:deskcolor="#505050"
   inkscape:zoom="2.362"
   inkscape:cx="178.87384"
   inkscape:cy="208.08637"
   inkscape:window-width="2560"
   inkscape:window-height="1377"
   inkscape:window-x="-8"
   inkscape:window-y="-8"
   inkscape:window-maximized="1"
   inkscape:current-layer="Layer_1" />

<circle
   style="display:inline;fill:#f9f9f9;stroke:#000000;stroke-width:0.755906;stroke-opacity:0;paint-order:markers stroke fill"
   id="path1"
   cx="250.63506"
   cy="200.6774"
   r="107.95936"
   inkscape:export-filename="..\..\..\..\logo.png"
   inkscape:export-xdpi="96"
   inkscape:export-ydpi="96" />






































<g
   id="g1"
   inkscape:label="logo"
   transform="translate(0,3.5477588)"><path
     fill="#fd6160"
     opacity="1"
     stroke="none"
     d="m 247.49069,226.82996 c 4.91559,0.96835 6.79964,4.00456 6.25466,8.88255 -0.23598,2.11215 -0.69986,5.95735 -1.04174,8.56624 -2.83925,12.64506 24.75951,-14.87991 27.95655,-17.27806 2.95263,-2.20124 4.26696,-4.77086 4.49575,-8.36213 0.29618,-4.6488 1.26731,-9.25914 1.4802,-13.90745 0.20746,-4.53012 2.20013,-7.11911 6.29776,-9.10335 7.15231,-3.46345 13.99231,-7.57194 21.58386,-11.75184 -2.60693,-5.15087 -5.02856,-9.93557 -6.48599,-12.81516 -4.34125,3.28334 -8.65222,6.37102 -12.77054,9.69725 -6.92618,5.59396 -9.08511,5.56287 -15.89554,-0.25659 -9.11499,-7.78873 -14.94763,-17.05281 -13.24853,-29.57889 0.41308,-3.04533 1.73007,-5.96805 2.78912,-9.46825 -3.07928,-0.63658 -6.08438,-1.25784 -9.62231,-1.98924 -2.08249,11.88614 -10.48182,19.74558 -16.4234,29.06859 -1.84458,2.89433 -3.9164,4.93886 -7.63259,4.41119 -3.00235,-0.42628 -3.99876,1.04377 -4.32779,3.92989 -1.20727,10.59006 -2.83075,21.1348 -3.90713,31.73622 -0.28462,2.80338 1.93027,4.87959 1.30404,8.62921 l -0.77128,4.61809 c -7.88069,-2.60415 -8.31133,-3.06053 -7.39769,-10.58679 1.60554,-13.22618 3.44353,-26.42404 5.07301,-39.64746 0.47951,-3.89131 2.44803,-5.80693 6.30043,-5.24949 3.8775,0.56105 6.18537,-1.22777 8.18286,-4.26314 3.01996,-4.5891 6.50115,-8.88414 9.36997,-13.55962 1.65159,-2.69168 2.48343,-5.88638 3.75468,-9.02875 -13.96428,-2.02114 -36.48283,5.62403 -43.42196,14.26519 0.0412,0.16146 0.0414,0.43646 0.12942,0.46829 8.32489,3.0087 6.24942,9.34219 5.96974,15.94838 -0.4931,11.64761 -6.80252,20.23839 -12.8405,29.17402 -1.67807,2.48336 -3.54835,4.86213 -4.9812,7.48002 -2.18411,3.9905 -5.08287,7.02404 -9.57962,8.13369 -4.23784,1.04575 -5.14517,3.49176 -3.71396,7.39069 2.39742,6.53107 4.65113,13.11488 7.19222,20.31985 -0.88904,0.62799 -2.31353,1.63417 -4.19521,2.96332 -1.49351,-2.18672 -2.834,-4.14941 -4.12033,-6.03282 -0.60644,0.25409 -1.03157,0.29231 -1.14479,0.50032 -2.21802,4.07532 -5.66602,8.9819 -2.34543,12.67032 1.50023,1.6664 8.1306,-0.0745 11.7554,-1.74287 15.27603,-7.03098 28.11579,-17.70766 40.76616,-28.57999 2.01483,-1.73163 3.99498,-3.50362 6.28398,-5.51413 1.31443,1.45401 2.49176,2.75638 4.20249,4.64877 -3.77735,3.35004 -7.08661,6.84645 -10.93234,9.59116 -11.89803,8.49164 -23.89617,16.8549 -36.09566,24.90388 -3.09958,2.04502 -6.99997,3.14991 -10.69162,3.96997 -9.24431,2.0535 -14.79514,-3.50958 -12.51099,-12.7366 1.14682,-4.63269 3.66965,-8.90826 5.17568,-13.47542 0.77302,-2.34424 1.4095,-5.14653 0.86624,-7.44888 -6.58094,-27.89023 -0.44637,-52.61604 19.98834,-72.57207 20.39217,-19.91452 45.12488,-25.91204 72.90981,-18.34274 1.82949,0.49841 4.26705,0.16363 6.0144,-0.6541 15.50647,-7.25675 32.08548,3.29222 31.46491,20.41681 -0.14817,4.08804 0.83825,7.12749 3.096,10.49445 17.69205,26.38429 16.66403,61.40091 -2.24518,85.65698 -20.54617,26.35594 -53.09747,36.30861 -83.99987,25.68327 -9.8936,-3.40176 -19.99326,-9.70267 -24.95746,-15.72778 1.13241,-1.26511 2.3079,-2.57834 2.70868,-3.02606 9.09005,4.58398 17.35429,9.61316 26.25319,12.94952 6.40112,2.3999 13.62925,2.69913 20.53521,3.56085 1.42621,0.17795 4.00557,-0.93249 4.44896,-2.07293 4.03797,-10.38624 13.76413,-14.45832 21.89484,-20.30202 0.67535,-0.4854 1.49289,-0.80286 2.08969,-1.36312 6.72498,-6.3132 14.39426,-8.23945 23.32819,-5.53942 1.33154,0.4024 3.90963,-0.23713 4.6044,-1.27196 10.87036,-16.19054 13.76437,-33.87795 9.4541,-54.02348 -7.59162,4.22329 -14.62882,8.10046 -21.6041,12.08598 -0.595,0.33996 -0.84967,1.37514 -1.1293,2.13627 -2.88976,22.49177 -3.72534,25.42277 -22.88849,39.09069 -5.47052,3.79809 -11.03811,7.46106 -16.63907,11.06505 -4.5338,2.91739 -6.58754,1.71975 -6.69633,-3.83013 -0.0784,-3.99772 -0.0255,-7.99853 0.004,-11.99771 0.0212,-2.82287 0.40632,-5.6743 -2.98429,-7.24597 -0.40923,-0.18968 0.24137,-2.66579 1.03173,-4.34728 0.5425,-0.60556 0.67893,-0.70786 2.23102,-0.41326 M 192.95674,170.5252 c -7.30946,12.0144 -11.32039,24.82556 -9.16711,39.57498 3.17288,-1.83791 6.3097,-3.76677 8.1697,-6.54917 7.75228,-11.59675 17.72928,-22.11868 17.5747,-37.6242 -0.0369,-3.70305 -1.46676,-4.78467 -3.99849,-6.27385 -2.94663,-1.7332 -4.32517,0.20956 -5.78066,1.98144 -2.21396,2.69526 -4.26933,5.52079 -6.79814,8.8908 m 82.23314,-25.68154 c -8.31137,11.71381 1.1922,26.97167 10.96341,32.62247 0.88373,0.51109 2.89896,-0.10878 3.94409,-0.83943 5.7605,-4.02739 9.88818,-9.35843 11.90558,-16.17046 2.34015,-7.90196 -0.18256,-15.4539 -6.39337,-19.33745 -6.36005,-3.97685 -13.61405,-2.83587 -20.41971,3.72487 m -2.74326,118.09822 c -3.98062,2.8049 -8.82406,4.78132 -10.11129,10.76957 15.29031,-2.65159 27.65066,-9.76154 38.16937,-21.03244 -5.88504,-2.69101 -10.52429,-2.16155 -15.08258,1.46182 -3.89142,3.09326 -8.24381,5.6066 -12.9755,8.80105 z"
     id="path2"
     sodipodi:nodetypes="cscsssscccssccssssscssssscccsssssccccsssccsssssssssscssccssssssccsssssssccccssssccscssccccsc"
     inkscape:export-filename="path2.svg"
     inkscape:export-xdpi="96"
     inkscape:export-ydpi="96" /><path
     fill="#fd6161"
     opacity="1"
     stroke="none"
     d="m 212.70619,128.75572 c 3.25449,-1.36455 6.1472,-2.63578 9.09905,-3.75046 1.84279,-0.69587 3.77476,-1.15555 6.1013,-1.85116 0.57735,1.87219 1.08922,3.53209 1.75723,5.69835 -33.483,11.0813 -53.34648,33.8744 -59.30783,68.9646 -1.86686,-0.16938 -3.58299,-0.32506 -6.13006,-0.55613 4.64149,-31.3684 20.61091,-53.878 48.48031,-68.5052 z"
     id="path3" /><path
     fill="#fd6161"
     opacity="1"
     stroke="none"
     d="m 334.0694,216.06496 c 2.65006,1.08704 1.99575,3.31694 1.73703,4.76722 -4.3938,24.63106 -16.73206,44.35337 -37.65284,58.14148 -7.51153,4.9506 -16.04138,8.35611 -24.85485,12.84824 -0.94602,-3.27353 -1.46518,-5.07007 -1.84766,-6.39359 7.47446,-3.64132 14.83383,-6.4389 21.36288,-10.55392 20.20279,-12.73303 32.21717,-31.22923 36.7053,-54.65566 0.44094,-2.30162 0.15637,-5.43608 4.55014,-4.15377 z"
     id="path4"
     sodipodi:nodetypes="ccsccssc" /><path
     fill="#FE5E5E"
     opacity="1"
     stroke="none"
     d="m 248.72256,209.40355 c -1.13826,-0.95068 -2.27652,-1.90137 -3.75064,-3.13257 1.58036,-1.71223 2.75869,-2.98891 4.13961,-4.48508 1.51527,1.08306 2.81057,2.00888 4.5451,3.24866 1.84207,-2.29835 3.743,-4.67012 5.7917,-7.22629 -2.62994,-0.22313 -5.62864,-0.47754 -8.93254,-0.75782 0,-1.88097 0,-3.59318 0,-5.91245 5.69762,0 11.12841,0 17.16701,0.22644 1.4874,0.99832 2.36694,1.77022 3.28558,2.5876 0.0391,0.0455 0.11948,0.13457 0.22626,0.3271 0.29279,0.43152 0.52603,0.60811 0.8656,0.77375 0.059,0.0514 0.17661,0.15486 0.17661,0.15486 -0.0763,3.28775 -0.15253,6.57551 -0.67276,10.31724 -2.12455,0.79634 -3.80515,1.13871 -5.48572,1.48108 -0.0547,-0.75305 -0.10931,-1.50612 -0.21295,-2.89897 -0.66992,-0.57324 -1.29096,-0.50668 -1.91196,-0.44012 -2.44177,2.49078 -4.88358,4.98156 -7.6329,7.27281 -0.24854,-1.39754 -0.18955,-2.59552 -0.0591,-5.24468 -3.20883,1.57843 -5.37388,2.64344 -7.53894,3.70844 z"
     id="path5"
     style="fill:#fe5e5e;fill-opacity:1;paint-order:markers stroke fill" /><path
     fill="#676767"
     opacity="1"
     stroke="none"
     d="m 214.74776,115.59487 c 2.19302,3.95113 4.804,4.04044 8.57245,1.34986 -1.47085,-1.13103 -2.61896,-2.0139 -4.28017,-3.29131 1.61363,-0.74492 2.94186,-1.35809 4.71576,-2.17699 0.62564,3.07787 3.95794,5.40686 0.33351,8.20607 -3.18369,2.45883 -7.99791,2.19879 -10.46863,-0.47567 -2.61343,-2.82892 -2.90042,-7.41018 -0.28961,-9.93228 2.49678,-2.41195 5.39575,-4.0071 10.03033,-1.30183 -4.61729,1.48769 -9.85688,1.06878 -8.61364,7.62215 z"
     id="path6"
     style="fill:#000000" /><path
     fill="#656565"
     opacity="1"
     stroke="none"
     d="m 236.8956,113.13571 c -1.85318,-4.33358 -1.39322,-7.85354 2.58746,-10.15905 3.1807,-1.84218 6.47081,-1.56686 9.12714,1.0605 2.66044,2.63145 2.97842,5.86156 1.084,9.08677 -2.57634,4.38614 -8.11421,4.48362 -12.7986,0.0118 m 2.44983,-6.77463 c -1.19757,3.30419 -1.24504,6.47091 2.80993,7.4256 1.48868,0.3505 4.28038,-0.69361 4.91626,-1.9147 0.78481,-1.50704 0.62014,-4.32133 -0.34698,-5.74954 -1.72638,-2.54949 -4.43672,-2.3421 -7.37921,0.23864 z"
     id="path7"
     style="fill:#000000" /><path
     fill="#656565"
     opacity="1"
     stroke="none"
     d="m 324.71161,156.42322 c -0.39743,-3.20507 -1.53687,-6.61685 -0.40256,-8.89798 0.92218,-1.85449 4.85712,-3.60117 6.93372,-3.1238 2.36123,0.54282 5.2912,3.33622 5.84457,5.65866 0.5286,2.21857 -1.02371,5.76813 -2.83499,7.51714 -2.85767,2.7594 -6.41919,1.94765 -9.54074,-1.15402 m 8.67843,-1.35639 c 2.70603,-2.98213 2.4148,-6.13643 -1.06692,-7.57722 -1.60352,-0.66358 -4.6048,1.04318 -6.4119,2.41394 -0.65121,0.49394 -0.21356,4.07497 0.69852,4.61912 1.67002,0.99631 4.06244,0.78182 6.7803,0.54416 z"
     id="path8"
     style="fill:#000000" /><path
     fill="#656565"
     opacity="1"
     stroke="none"
     d="m 312.6868,133.62064 c -5.08176,2.97544 -9.30191,2.15014 -11.72275,-1.97002 -2.08792,-3.55353 -0.63855,-8.12204 3.20987,-10.11776 3.5452,-1.83845 8.7164,-0.36176 9.89288,3.65581 0.70462,2.40609 -0.6698,5.42102 -1.38,8.43197 m -8.17374,-1.59415 c 1.99137,-0.0145 4.82767,0.76245 5.76556,-0.23883 1.24259,-1.32656 1.92472,-4.55066 1.12223,-6.01128 -0.71726,-1.30546 -4.17157,-2.31998 -5.72067,-1.70521 -3.31339,1.31495 -3.8313,4.28329 -1.16712,7.95532 z"
     id="path9"
     style="fill:#000000" /><path
     fill="#676767"
     opacity="1"
     stroke="none"
     d="m 209.78894,120.92215 c 1.98737,4.07337 -1.19127,5.50473 -3.40025,5.9324 -2.56324,0.49626 -6.44837,0.34461 -7.90421,-1.23545 -1.69322,-1.83769 -2.48036,-5.90066 -1.66435,-8.32626 1.15512,-3.43359 4.51834,-5.23705 10.03754,-3.51428 -2.77369,1.1585 -4.6175,1.45195 -5.71233,2.51604 -1.16216,1.12952 -2.20812,2.99556 -2.19482,4.53034 0.0115,1.32515 1.43873,3.58564 2.49293,3.74342 1.81361,0.27146 3.8239,-0.77113 5.75165,-1.26218 -0.989,-1.09752 -1.978,-2.19505 -2.9908,-3.31899 2.91132,-3.00139 2.91132,-3.00139 5.58464,0.93496 z"
     id="path10"
     style="fill:#000000" /><path
     fill="#676767"
     opacity="1"
     stroke="none"
     d="m 267.31042,112.22302 c -2.76507,6.05715 -7.40081,4.80394 -12.59748,3.84641 0.50099,-4.47945 0.98635,-8.81928 1.46641,-13.11148 8.04273,-1.36507 11.96057,1.79715 11.13107,9.26507 m -7.73672,-7.19349 c -0.69952,2.97497 -1.39902,5.94995 -2.18454,9.29062 4.25809,0.47039 6.83609,-0.1173 7.46948,-3.62952 0.6041,-3.34985 -0.98981,-5.35394 -5.28494,-5.6611 z"
     id="path11"
     style="fill:#000000" /><path
     fill="#656565"
     opacity="1"
     stroke="none"
     d="m 272.18005,115.10558 c 2.09018,-2.57506 3.88678,-4.94423 5.84796,-7.16822 1.58887,-1.80174 3.40299,-1.88639 3.78309,0.78808 0.61099,4.29949 0.70144,8.67296 1.10217,14.27862 -2.40015,-2.53717 -3.64462,-4.90867 -5.45453,-5.47589 -1.89905,-0.59519 -4.34024,0.53943 -7.31082,1.04973 0.71466,-1.26517 1.26214,-2.23444 2.03213,-3.47232 z"
     id="path12"
     style="fill:#000000" /><path
     fill="#656565"
     opacity="1"
     stroke="none"
     d="m 183.27808,125.5331 c 4.81915,1.68853 9.37774,3.69834 13.93635,5.70817 0.0322,0.63205 0.0644,1.26412 0.0967,1.89617 -6.48609,-1.74984 -9.45636,0.79956 -9.21303,7.27865 -0.51856,-0.0887 -1.0371,-0.17747 -1.55565,-0.26622 -1.17497,-4.76517 -2.34996,-9.53033 -3.26437,-14.61677 z"
     id="path13"
     style="fill:#000000" /><path
     fill="#6B6B6A"
     opacity="1"
     stroke="none"
     d="m 296.091,112.79202 c 1.51944,1.03678 2.69358,1.95103 3.86768,2.86528 -0.19254,0.34117 -0.38507,0.68235 -0.57764,1.02353 -1.91385,-0.62692 -3.8277,-1.25384 -6.03698,-1.97755 -0.80991,4.54034 7.50689,8.25797 0.56491,11.79579 -3.15104,1.60583 -5.90131,-1.15716 -7.51691,-4.55273 2.17307,0.74649 4.34616,1.49298 6.66797,2.29056 -0.83536,-3.95966 -1.59806,-7.18622 -1.98743,-10.45722 -0.0217,-0.18205 3.04428,-0.73165 5.0184,-0.98766 z"
     id="path14"
     style="fill:#000000" /><path
     fill="#656565"
     opacity="1"
     stroke="none"
     d="m 173.17493,146.83661 c 0.72349,1.16075 1.41305,1.93912 1.75633,2.84822 0.43318,1.14725 0.58394,2.40112 0.85652,3.60901 -1.23006,0.13751 -2.53395,0.60628 -3.67657,0.35158 -3.69948,-0.82465 -7.33976,-1.91484 -11.00272,-3.56212 3.17656,-2.71796 6.60702,0.84903 10.29018,-0.0994 -1.43239,-3.17425 -2.84819,-6.31172 -4.26398,-9.44917 0.54768,-0.22353 1.09535,-0.44705 1.64303,-0.67058 1.40317,2.21605 2.80634,4.4321 4.39721,6.97249 z"
     id="path15"
     style="fill:#000000" /><path
     fill="#6B6B6A"
     opacity="1"
     stroke="none"
     d="m 315.83276,136.83849 c 2.18515,-2.10244 4.11524,-3.96039 6.04529,-5.81836 0.54123,0.4882 1.08243,0.97641 1.62366,1.46461 -2.50022,2.8266 -5.0004,5.65318 -7.75565,8.7681 1.25727,1.63469 2.56516,3.33516 3.87302,5.03561 -0.3634,0.34328 -0.72681,0.68656 -1.09021,1.02983 -2.14185,-1.94449 -4.28372,-3.88897 -6.81116,-6.18353 1.4477,-1.51965 2.65381,-2.78572 4.11505,-4.29626 z"
     id="path16"
     style="fill:#000000" /><path
     fill="#fd6565"
     opacity="1"
     stroke="none"
     d="m 259.94684,292.12646 c -0.32276,-1.7983 -0.4567,-3.25717 -0.64524,-5.31002 1.98786,-0.30271 3.81382,-0.58078 6.0065,-0.91468 0.44947,2.10614 0.81086,3.79944 1.40092,6.56421 -2.57264,0 -4.573,0 -6.76218,-0.33951 z"
     id="path17" /><path
     fill="#5C5C5C"
     opacity="1"
     stroke="none"
     d="m 174.46576,137.40112 c -0.66077,-1.09155 -1.06139,-1.93422 -1.46201,-2.77687 0.43631,-0.32686 0.87262,-0.65372 1.30895,-0.98057 3.27841,3.264 6.55684,6.52801 9.83526,9.792 -0.48599,0.52169 -0.97198,1.04335 -1.45797,1.56502 -2.6547,-2.45022 -5.30941,-4.90045 -8.22423,-7.59958 z"
     id="path18"
     style="fill:#000000" /><path
     fill="#656565"
     opacity="1"
     stroke="none"
     d="m 227.89897,104.73077 c 0.50707,-0.39532 1.03888,-0.63392 1.09807,-0.54778 2.89772,4.21744 2.83101,8.97154 3.34334,13.62259 -0.721,0.15937 -1.44197,0.31874 -2.16297,0.4781 -0.82472,-4.41489 -1.64944,-8.82978 -2.27844,-13.55291 z"
     id="path19"
     style="fill:#000000" /><path
     fill="#F97B7B"
     opacity="1"
     stroke="none"
     d="m 266.06954,206.93785 c 7.14049,-2.83411 4.74513,-7.94465 6.33448,5.69028 -1.98755,0.1235 -3.69629,0.22969 -5.88965,0.36598 -0.27609,-1.99168 -0.3649,-4.05807 -0.44483,-6.05626 z"
     id="path20"
     style="fill:#fe5e5e"
     sodipodi:nodetypes="cccc" /><path
     fill="#F99A9A"
     opacity="1"
     stroke="none"
     d="m 248.66655,209.33645 c 2.02461,-1.37211 4.65073,-2.75089 7.85956,-4.32932 -0.13049,2.64916 0.30371,4.78772 -0.21191,5.91248 -2.7787,2.87466 -5.52648,0.93634 -7.64762,-1.58316 z"
     id="path21"
     style="fill:#fe5e5e"
     sodipodi:nodetypes="ccccc" /><path
     fill="#fe5e5e"
     opacity="1"
     stroke="none"
     d="m 274.34024,187.79839 c 3.83771,3.26116 -0.11753,5.1686 -2.14765,7.44438 -0.85926,-0.091 -1.67872,-1.32249 -2.52034,-1.76937 -0.4845,-1.56093 -1.74803,-0.9325 -2.16023,-2.09092 0.69105,0.0186 2.57749,-2.12486 3.15943,-2.65618 0.75951,-0.80269 2.102,-2.12018 3.66879,-0.92794 z"
     id="path22"
     sodipodi:nodetypes="ccccccc" /><path
     fill="#fd6161"
     opacity="1"
     stroke="none"
     d="m 281.65601,161.42545 c -3.59543,-3.53843 -4.46527,-7.2641 -2.27314,-11.51133 1.88867,-3.65927 5.02912,-5.16621 9.00302,-4.82672 4.30472,0.36778 6.88001,2.99036 8.03797,6.99683 1.15665,4.00204 -0.51038,7.17802 -3.54447,9.58948 -3.54745,2.81942 -7.29419,2.62487 -11.22338,-0.24826 m 7.29205,-4.54477 c 0.26703,-1.53119 0.34856,-3.04614 0.25989,-4.54553 -0.0435,-0.73514 -1.72469,-1.01998 -2.98142,-0.64266 -0.78711,0.23632 -1.78091,1.69678 -1.66461,2.52129 0.1695,0.61508 2.43769,1.78213 4.38614,2.6669 z"
     id="path39"
     sodipodi:nodetypes="cssssccsscc" /><path
     style="fill:#008000;stroke:#000000;stroke-width:0.160014;stroke-opacity:0"
     d="m 284.68116,176.40044 c -2.35071,-1.55567 -6.22104,-5.50595 -7.96211,-8.12657 -1.78823,-2.69161 -3.22467,-5.75395 -3.91316,-8.34243 -0.76141,-2.86268 -0.80262,-7.16916 -0.0921,-9.6231 0.74577,-2.57564 1.9905,-4.7848 3.46523,-6.15014 3.56761,-3.30298 7.82184,-5.18699 11.71259,-5.18699 8.97162,0 15.97428,8.49286 14.72753,17.86163 -0.70577,5.30354 -3.43304,10.93482 -7.31662,15.10742 -1.9677,2.11415 -4.70333,4.36329 -6.1408,5.04876 -1.69405,0.80783 -2.53806,0.69696 -4.48057,-0.58858 z m 6.37911,-13.48977 c 3.18799,-1.56944 5.56125,-4.77217 5.77188,-7.78918 0.2578,-3.6927 -2.00279,-7.78184 -5.11628,-9.25476 -2.54318,-1.20312 -6.06119,-1.20909 -8.50299,-0.0144 -2.37261,1.16081 -4.38002,4.01343 -4.96883,7.06095 -0.67329,3.48474 1.51754,7.74326 4.91524,9.55422 1.99492,1.06328 2.83395,1.27497 4.76504,1.20224 1.44396,-0.0544 1.95669,-0.17849 3.13594,-0.75904 z"
     id="path40" /><path
     style="fill:#0000ff;stroke:#000000;stroke-width:0.160014;stroke-opacity:0"
     d="m 262.67311,272.92614 c 0.0744,-0.38457 0.44343,-1.31124 0.82008,-2.05928 1.23277,-2.44837 2.56811,-3.5429 11.75233,-9.63302 4.62682,-3.06807 9.17446,-6.16288 10.10588,-6.87735 3.03199,-2.32581 5.28929,-3.18543 8.37587,-3.18971 1.87661,-0.003 3.97937,0.43522 5.66688,1.1799 l 0.91828,0.40523 -2.61176,2.55159 c -9.30599,9.09161 -19.72046,14.84674 -31.77419,17.55869 -1.30825,0.29434 -2.60589,0.58647 -2.88364,0.64917 -0.47179,0.1065 -0.4961,0.068 -0.36973,-0.58522 z"
     id="path42" /><path
     style="fill:#0000ff;stroke:#000000;stroke-width:0.160014;stroke-opacity:0"
     d="m 183.76447,209.18698 c -0.54669,-2.9141 -0.50718,-10.31348 0.0765,-14.32063 1.04955,-7.20596 3.67047,-14.56861 7.7275,-21.70801 1.46643,-2.58056 6.8972,-9.97223 8.98428,-12.22823 1.90057,-2.05442 2.77089,-2.27154 4.80862,-1.19963 3.71179,1.95252 4.50465,3.94778 3.89983,9.81411 -0.65201,6.32405 -2.90253,12.28733 -7.25352,19.21989 -2.72159,4.33638 -10.72549,15.57806 -11.95542,16.79169 -1.09519,1.08067 -3.30894,2.69538 -5.17367,3.77368 l -0.98088,0.56721 z"
     id="path43" /></g></svg>
