<?xml version="1.0" encoding="UTF-8" standalone="no"?>
<svg
   version="1.1"
   id="Layer_1"
   x="0px"
   y="0px"
   width="100%"
   viewBox="0 0 50 50"
   enable-background="new 0 0 50 50"
   xml:space="preserve"
   sodipodi:docname="icon-login.svg"
   inkscape:version="1.3.2 (091e20e, 2023-11-25, custom)"
   xmlns:inkscape="http://www.inkscape.org/namespaces/inkscape"
   xmlns:sodipodi="http://sodipodi.sourceforge.net/DTD/sodipodi-0.dtd"
   xmlns="http://www.w3.org/2000/svg"
   xmlns:svg="http://www.w3.org/2000/svg"><defs
   id="defs3" /><sodipodi:namedview
   id="namedview3"
   pagecolor="#505050"
   bordercolor="#eeeeee"
   borderopacity="1"
   inkscape:showpageshadow="0"
   inkscape:pageopacity="0"
   inkscape:pagecheckerboard="0"
   inkscape:deskcolor="#505050"
   inkscape:zoom="23.62"
   inkscape:cx="25.656224"
   inkscape:cy="27.201524"
   inkscape:window-width="2560"
   inkscape:window-height="1377"
   inkscape:window-x="-8"
   inkscape:window-y="-8"
   inkscape:window-maximized="1"
   inkscape:current-layer="a3" />

<a
   id="a3"><path
     fill="#ffffff"
     opacity="1"
     stroke="none"
     d="M 48.419895,33.717323 C 42.163724,50.893465 20.615135,52.492779 10.496756,43.995235 2.780279,37.514839 1.620771,28.727737 3.2948,19.877546 4.885465,11.468081 10.787342,5.347304 19.214056,3.438864 35.348415,-0.215164 49.648376,9.355224 48.97031,25.524796 M 16.805609,14.625574 c 0.930824,-5.480005 3.454313,-5.61456 9.157579,-5.60454 7.465993,0.013117 8.287518,0.677667 9.413342,5.809741 1.297386,5.914138 0.296264,11.392688 -2.357754,16.820995 -0.650414,1.330309 -0.03905,4.707452 0.875122,5.102991 2.674786,1.157318 6.103775,4.458111 8.68755,0.881435 4.118335,-5.70095 5.003875,-12.436987 2.212989,-18.983671 C 40.942665,9.617292 33.934376,5.389628 23.890207,5.928351 15.689321,6.36821 10.38913,11.271493 7.377757,17.752337 4.39451,24.172653 4.655778,31.571142 9.34339,37.617325 c 2.746909,3.543026 6.017224,0.261589 8.720035,-0.83812 0.971369,-0.395229 1.92487,-3.803764 1.28941,-4.683674 -3.460804,-4.792085 -3.577022,-11.407364 -2.547226,-17.469957 z"
     id="path2"
     sodipodi:nodetypes="csssccsssssssssscc" /><path
     style="fill:#ff6f61;stroke:#000000;stroke-width:0.0320028;stroke-opacity:0;paint-order:markers stroke fill;fill-opacity:1"
     d="M 24.42845,48.960914 C 20.337803,48.782769 16.413975,47.695406 13.209145,45.851842 9.7231706,43.846547 6.6109865,40.470062 4.8269779,36.757821 2.6143704,32.153733 2.0926604,26.640612 3.2605315,20.204547 4.3303807,14.308675 7.3730618,9.556558 12.052695,6.4727799 15.249689,4.3660293 18.977049,3.1866663 23.772227,2.7646375 c 0.94803,-0.083437 3.733618,-0.070212 4.65707,0.02211 3.39244,0.3391602 6.14858,1.0977286 8.869602,2.4411679 3.373468,1.6655687 6.17917,4.1057216 8.178938,7.1133206 1.650491,2.482301 2.778031,5.454691 3.228975,8.512148 0.162083,1.098956 0.218099,1.80827 0.242193,3.067022 0.02389,1.248 0.01935,1.344179 -0.260813,5.524979 l -0.285123,4.254869 -0.273975,0.698561 c -0.312824,0.797631 -0.97721,2.185399 -1.418798,2.96359 -3.414214,6.01673 -9.412283,10.056625 -16.71453,11.257777 -1.81531,0.298603 -3.777336,0.418683 -5.567316,0.340732 z m 16.299746,-9.835562 c 0.515839,-0.166979 0.836033,-0.376505 1.335442,-0.87387 0.365209,-0.363715 0.543283,-0.590791 0.979426,-1.248942 0.646706,-0.975895 0.944266,-1.491373 1.429503,-2.476398 0.987611,-2.004834 1.580363,-4.009568 1.852767,-6.266193 0.104916,-0.869109 0.10467,-3.071752 -4.36e-4,-3.937341 -0.308581,-2.541263 -0.956376,-4.64629 -2.208372,-7.176122 C 40.957029,10.762276 36.019166,7.0881778 29.297206,6.1199276 27.289667,5.8307561 24.595087,5.7873756 22.642077,6.0127856 16.971632,6.66725 12.408962,9.5386969 9.1553971,14.500423 c -0.7584559,1.156655 -1.567544,2.668671 -2.0955639,3.916173 -2.7500816,6.497351 -2.0371893,13.397772 1.939823,18.776461 0.5101461,0.689944 0.7551711,0.968816 1.0946628,1.245877 0.650291,0.530705 1.194463,0.744837 1.971727,0.775877 1.097929,0.04384 1.994789,-0.269636 4.080541,-1.426275 0.469073,-0.260121 1.149778,-0.617569 1.512677,-0.794329 0.608383,-0.29633 0.674405,-0.339885 0.846944,-0.558726 0.371542,-0.471251 0.755446,-1.414203 0.954132,-2.343558 0.06888,-0.32218 0.09361,-0.586726 0.09596,-1.026724 0.0036,-0.673459 -0.02598,-0.774075 -0.370148,-1.258635 -1.169309,-1.646292 -2.103564,-4.013279 -2.544528,-6.446699 -0.279172,-1.540587 -0.34188,-2.371497 -0.34188,-4.53006 0,-1.891543 0.02204,-2.325234 0.194743,-3.831498 0.433086,-3.777314 0.963662,-5.39744 2.132085,-6.510373 1.196007,-1.1392067 2.695749,-1.4481681 7.02965,-1.4481779 6.090552,-1.35e-5 7.671378,0.4673269 8.722074,2.5785099 0.577958,1.161303 1.225009,3.944729 1.43767,6.184444 0.402633,4.240469 -0.427538,8.691016 -2.420499,12.976291 -0.639638,1.375355 -0.671643,1.511204 -0.635615,2.698009 0.03206,1.056244 0.210323,1.894758 0.559899,2.6337 0.188781,0.399051 0.358211,0.551879 0.928763,0.837756 0.28059,0.140591 0.81499,0.426993 1.187555,0.636451 1.971282,1.10826 2.744075,1.454362 3.616365,1.619618 0.496329,0.09403 1.250798,0.05838 1.67576,-0.07918 z"
     id="path3"
     inkscape:export-filename="path3.svg"
     inkscape:export-xdpi="96"
     inkscape:export-ydpi="96" /></a>

</svg>
